<svg width="900" height="900" viewBox="0 0 900 900" fill="none" xmlns="http://www.w3.org/2000/svg">
<g clip-path="url(#clip0_2_12)">
<rect width="900" height="900" rx="200" fill="#8774E1"/>
<path d="M213 793C205.667 793 200 791 196 787C192 782.333 190 776.667 190 770V117C190 109.667 192 104 196 100C200 95.3333 205.667 93 213 93H259C267 93 273 95 277 99C281 102.333 283.333 105 284 107L616 617V117C616 109.667 618 104 622 100C626 95.3333 631.667 93 639 93H687C694.333 93 700 95.3333 704 100C708.667 104 711 109.667 711 117V769C711 775.667 708.667 781.333 704 786C700 790.667 694.667 793 688 793H640C632.667 793 627 791 623 787C619.667 783 617.333 780.333 616 779L285 274V770C285 776.667 282.667 782.333 278 787C274 791 268.333 793 261 793H213Z" fill="white"/>
<path d="M537.5 187L634.92 116.812C652.546 104.113 676.355 104.248 693.836 117.147L788.5 187" stroke="white" stroke-width="50"/>
</g>
<defs>
<clipPath id="clip0_2_12">
<rect width="900" height="900" rx="200" fill="white"/>
</clipPath>
</defs>
</svg>
